<?xml version="1.0" encoding="utf-8"?>
<svg xmlns="http://www.w3.org/2000/svg" height="512pt" version="1.1" viewBox="0 0 512 512" width="512pt">
<path d="M 0.00 0.00 L 512.00 0.00 L 512.00 512.00 L 0.00 512.00 L 0.00 0.00 Z" fill="#b3b1a3" opacity="0.00" stroke="#b3b1a3" stroke-width="0.25"/>
<path d="M 121.51 32.48 C 129.55 27.20 138.24 22.49 144.72 15.24 C 151.66 19.84 157.23 26.16 162.33 32.66 C 168.87 41.43 174.39 51.87 173.89 63.10 C 173.78 68.25 169.88 72.14 166.09 75.12 C 159.68 80.08 153.16 84.92 146.37 89.36 C 139.31 93.82 132.88 99.28 127.91 106.02 C 121.15 96.81 116.26 86.40 110.22 76.72 C 107.07 71.24 103.25 65.55 103.18 59.01 C 103.46 55.99 102.83 52.45 105.01 49.99 C 105.74 53.88 105.80 57.86 106.59 61.74 C 108.89 70.41 114.91 77.33 118.80 85.27 C 121.81 91.25 125.16 97.06 128.00 103.13 C 128.71 101.50 129.30 99.76 130.55 98.46 C 134.81 93.65 140.01 89.81 145.38 86.33 C 151.97 82.03 158.30 77.32 164.40 72.34 C 167.28 69.93 170.30 66.99 170.60 63.01 C 171.12 55.81 168.35 48.87 165.31 42.49 C 160.24 32.96 152.46 25.29 144.87 17.76 C 142.95 20.81 140.44 23.43 137.51 25.53 C 126.69 33.55 114.62 39.98 104.92 49.46 C 102.94 51.40 100.74 53.11 98.36 54.53 C 99.19 52.18 100.33 49.90 102.07 48.08 C 107.73 41.93 114.72 37.25 121.51 32.48 Z" fill="#01101b" opacity="1.00" stroke="#01101b" stroke-width="0.25"/>
<path d="M 137.51 25.53 C 140.44 23.43 142.95 20.81 144.87 17.76 C 152.46 25.29 160.24 32.96 165.31 42.49 C 168.35 48.87 171.12 55.81 170.60 63.01 C 170.30 66.99 167.28 69.93 164.40 72.34 C 158.30 77.32 151.97 82.03 145.38 86.33 C 140.01 89.81 134.81 93.65 130.55 98.46 C 129.30 99.76 128.71 101.50 128.00 103.13 C 125.16 97.06 121.81 91.25 118.80 85.27 C 114.91 77.33 108.89 70.41 106.59 61.74 C 105.80 57.86 105.74 53.88 105.01 49.99 L 104.92 49.46 C 114.62 39.98 126.69 33.55 137.51 25.53 Z" fill="#ffffff" opacity="1.00" stroke="#ffffff" stroke-width="0.25"/>
<path d="M 327.30 37.23 C 336.45 34.38 345.00 29.41 351.33 22.12 C 354.73 41.28 354.87 60.93 352.30 80.19 C 340.74 81.93 331.03 88.85 320.69 93.79 C 312.83 98.39 304.34 101.86 296.84 107.07 C 295.21 108.00 293.29 108.23 291.51 108.73 C 292.65 107.46 293.84 106.22 295.02 104.99 C 289.38 85.69 286.53 64.71 292.20 45.09 C 303.41 40.60 315.78 40.60 327.30 37.23 Z" fill="#01101b" opacity="1.00" stroke="#01101b" stroke-width="0.25"/>
<path d="M 135.53 34.61 C 138.94 32.28 142.06 29.51 145.81 27.72 C 143.37 30.65 139.81 32.27 136.84 34.59 C 128.09 41.08 118.66 46.67 110.42 53.82 C 110.76 52.58 111.57 51.59 112.62 50.87 C 119.99 45.08 127.86 39.97 135.53 34.61 Z" fill="#0e5276" opacity="1.00" stroke="#0e5276" stroke-width="0.25"/>
<path d="M 336.13 37.08 C 340.86 34.68 345.21 31.52 349.15 27.99 C 351.66 39.49 350.61 51.31 350.57 62.96 C 350.42 67.69 350.55 72.44 349.85 77.12 C 336.46 81.22 324.31 88.41 312.05 95.01 C 307.23 97.74 302.22 100.18 297.92 103.72 C 293.37 87.92 291.24 71.22 293.48 54.86 C 294.18 52.11 295.03 48.80 297.17 46.96 C 310.01 43.17 323.88 42.87 336.13 37.08 Z" fill="#ffffff" opacity="1.00" stroke="#ffffff" stroke-width="0.25"/>
<path d="M 138.62 38.68 C 142.50 36.26 146.01 33.10 150.42 31.61 C 137.85 40.60 124.99 49.22 112.46 58.24 C 113.41 56.04 115.63 54.96 117.46 53.60 C 124.46 48.56 131.62 43.73 138.62 38.68 Z" fill="#0e5276" opacity="1.00" stroke="#0e5276" stroke-width="0.25"/>
<path d="M 145.02 41.97 C 147.99 39.86 150.44 36.76 154.11 35.86 C 145.59 43.61 135.56 49.43 126.45 56.44 C 122.81 59.07 119.54 62.19 115.75 64.62 C 117.50 61.43 120.86 59.73 123.58 57.50 C 130.51 52.03 137.89 47.18 145.02 41.97 Z" fill="#0e5276" opacity="1.00" stroke="#0e5276" stroke-width="0.25"/>
<path d="M 199.60 36.63 C 200.73 36.54 202.39 35.46 203.21 36.79 C 205.35 40.64 205.98 45.15 206.36 49.48 C 208.17 48.65 209.99 47.82 211.80 46.97 C 212.83 44.56 212.70 41.05 215.00 39.55 C 222.08 41.32 230.22 42.49 235.47 47.99 C 235.18 48.62 234.58 49.87 234.28 50.50 C 228.72 47.46 222.88 44.88 216.67 43.49 C 215.93 44.66 215.19 45.83 214.46 47.01 C 219.06 48.12 223.57 49.80 227.46 52.54 C 231.91 55.67 238.23 57.18 240.33 62.76 C 241.85 67.24 238.85 72.03 234.48 73.38 C 237.57 80.83 234.17 89.25 227.99 93.93 C 229.63 98.88 232.20 104.41 237.38 106.41 C 245.22 107.86 253.14 108.95 260.95 110.63 C 263.22 111.24 265.83 111.81 267.13 113.99 C 274.65 124.61 283.48 134.18 291.81 144.15 C 293.06 145.57 294.22 147.25 296.10 147.89 C 301.66 150.12 307.49 151.56 313.26 153.15 C 310.66 145.30 307.06 137.87 303.47 130.44 C 305.93 130.93 308.51 131.81 310.95 130.66 C 317.43 128.24 323.80 125.47 330.43 123.44 C 346.02 117.79 362.86 116.09 377.90 108.87 C 382.25 127.33 386.40 145.85 389.64 164.55 C 390.34 168.70 391.02 172.86 391.13 177.08 C 387.36 175.14 383.06 175.16 379.08 176.42 C 365.70 180.27 352.51 184.78 339.08 188.44 C 336.87 195.01 334.47 201.52 332.34 208.11 C 331.85 209.50 331.36 210.99 330.16 211.93 C 327.53 210.18 324.95 208.22 321.92 207.23 C 319.80 207.21 317.69 207.56 315.59 207.74 C 316.11 200.84 315.37 193.94 314.96 187.05 C 310.16 186.19 305.27 185.72 300.40 186.04 C 301.30 181.03 300.44 175.94 300.03 170.92 C 288.83 167.26 277.77 163.16 267.11 158.12 C 272.49 184.19 278.61 210.32 279.47 237.02 C 279.71 238.78 278.87 240.32 277.47 241.33 C 287.50 278.16 284.01 316.92 278.25 354.15 C 277.19 361.32 275.83 368.44 274.80 375.62 C 283.52 375.66 292.18 376.74 300.89 377.08 C 327.62 378.42 354.52 374.78 381.11 378.87 C 382.12 370.89 381.58 362.82 381.22 354.82 C 375.76 354.80 370.31 354.81 364.88 355.33 C 365.16 349.56 364.07 343.86 363.43 338.15 C 360.62 314.42 361.23 290.08 367.24 266.87 C 367.99 263.67 368.66 260.45 369.59 257.29 C 379.47 259.00 389.34 260.78 399.15 262.86 C 399.10 251.55 399.78 240.24 399.40 228.92 C 402.43 232.23 407.10 231.43 411.07 232.37 C 417.01 233.48 423.02 234.17 429.07 234.34 C 441.62 234.73 454.27 235.97 466.32 239.69 C 470.99 240.82 475.30 242.99 479.90 244.34 C 478.65 245.35 477.36 246.32 476.01 247.18 C 475.08 255.79 476.78 264.36 477.30 272.94 C 478.15 285.64 478.95 298.35 480.42 311.00 C 457.36 306.72 433.82 305.23 410.97 299.73 C 408.82 307.69 407.33 315.83 404.84 323.70 C 411.43 324.06 418.03 324.72 424.62 324.03 C 422.32 329.42 423.24 335.33 423.27 341.01 C 423.55 354.69 423.91 368.38 424.89 382.04 C 425.07 384.85 426.25 387.44 426.99 390.13 C 419.83 386.43 411.67 386.00 403.88 384.61 C 393.93 383.03 383.82 383.06 373.88 381.45 C 362.31 380.06 350.62 380.29 338.99 380.66 C 323.36 381.01 307.71 381.45 292.11 380.24 C 286.25 379.71 280.37 379.55 274.50 379.22 C 271.48 395.22 269.33 411.37 266.73 427.44 C 264.16 441.61 262.41 455.90 260.27 470.14 C 269.78 475.35 280.33 478.27 290.74 481.10 C 292.93 481.81 295.71 481.95 297.06 484.12 C 297.84 486.78 297.37 489.59 297.22 492.32 C 294.52 492.68 291.80 492.71 289.09 492.49 C 277.28 491.70 265.21 490.83 254.10 486.42 C 253.96 488.98 254.44 491.83 252.98 494.12 C 251.10 494.93 248.95 494.18 247.00 494.06 C 234.36 492.07 221.75 488.60 210.47 482.45 C 209.24 485.32 207.92 488.15 206.35 490.85 C 203.93 489.62 201.52 488.39 199.12 487.13 C 200.08 484.03 201.11 480.96 202.29 477.94 C 198.28 475.69 193.88 474.30 189.63 472.60 C 192.38 466.98 195.29 461.43 197.73 455.68 C 198.58 455.84 200.26 456.16 201.11 456.32 C 203.99 444.45 206.90 432.60 209.67 420.72 C 212.31 407.84 215.83 395.16 218.15 382.22 C 196.07 381.12 173.93 382.00 151.85 380.85 C 150.68 384.66 150.23 388.63 149.99 392.61 C 145.02 389.43 139.67 386.85 133.88 385.55 C 122.48 382.59 110.79 381.01 99.14 379.47 C 95.03 378.80 90.82 379.52 86.76 378.59 C 90.96 372.12 92.68 364.48 95.08 357.24 C 98.26 347.43 97.55 336.25 103.59 327.49 C 104.65 325.81 105.82 324.20 107.09 322.69 C 104.03 328.40 101.80 334.52 100.97 340.98 C 99.38 353.20 96.48 365.37 91.15 376.53 C 92.97 376.37 94.79 376.15 96.63 376.19 C 104.77 376.69 112.83 378.14 120.88 379.45 C 129.92 381.12 139.17 382.85 147.38 387.19 C 148.00 383.60 148.67 380.01 149.73 376.51 C 153.24 364.94 156.85 353.38 159.25 341.51 C 161.39 331.10 163.61 320.71 165.87 310.33 C 151.76 311.24 137.10 310.09 124.03 304.33 C 117.34 315.37 116.41 328.58 113.64 340.92 C 111.95 350.33 109.03 359.43 106.01 368.48 C 112.16 369.08 118.31 369.72 124.36 371.01 C 126.73 365.23 128.16 359.12 130.54 353.34 C 131.08 351.91 132.27 350.89 133.29 349.81 C 132.54 357.26 129.77 364.26 128.00 371.48 C 132.77 372.80 137.75 373.30 142.43 374.93 C 142.54 375.56 142.78 376.84 142.89 377.47 C 131.77 374.44 120.37 372.54 108.90 371.42 C 106.78 371.21 104.63 371.24 102.54 371.68 L 101.35 371.89 C 104.76 362.44 108.07 352.90 109.96 343.01 C 112.18 332.59 112.75 321.73 116.89 311.79 C 118.64 306.92 121.90 302.85 124.68 298.55 C 127.17 302.66 132.04 304.28 136.46 305.36 C 145.52 307.05 154.78 307.81 163.99 307.30 C 166.20 307.31 167.97 305.85 169.85 304.92 C 167.65 315.55 165.31 326.16 163.30 336.83 C 160.96 350.68 156.83 364.14 153.08 377.66 C 174.92 378.41 196.77 377.80 218.60 378.57 C 221.40 352.94 220.50 327.09 218.63 301.43 C 211.15 300.71 204.90 296.29 197.94 293.94 C 195.75 293.08 193.13 292.53 191.97 290.24 C 191.36 291.35 190.77 292.48 190.17 293.60 C 184.68 292.80 179.17 292.22 173.66 291.60 C 172.70 294.09 172.53 297.19 170.12 298.82 C 170.45 296.29 170.84 293.77 171.12 291.24 C 170.30 291.08 168.67 290.77 167.85 290.62 C 167.79 288.76 167.74 286.89 168.05 285.05 C 171.09 266.96 174.66 248.96 178.11 230.94 C 178.40 229.55 179.00 228.25 179.52 226.94 C 174.25 222.05 169.53 216.52 165.39 210.66 C 164.68 207.87 165.70 204.92 166.05 202.12 C 168.68 189.44 171.23 176.75 174.07 164.12 C 175.60 157.47 176.34 150.53 179.27 144.29 C 182.31 137.77 185.80 131.47 189.02 125.03 C 191.95 118.84 194.37 112.27 198.85 106.98 C 200.71 100.17 199.47 92.91 198.12 86.10 C 190.72 87.14 182.96 81.64 182.40 74.02 C 181.54 67.63 186.71 61.51 193.06 60.93 C 193.89 60.47 195.99 60.99 195.63 59.45 C 190.71 54.08 183.82 50.79 179.38 44.95 C 180.05 44.82 181.39 44.58 182.05 44.46 C 185.68 46.07 188.57 48.94 191.79 51.21 C 194.04 52.76 196.15 55.06 199.11 54.88 C 196.60 49.32 191.70 45.31 188.97 39.87 C 189.76 39.53 191.34 38.86 192.14 38.53 C 196.64 42.02 198.63 47.86 202.55 51.97 C 202.83 46.67 200.58 41.75 199.60 36.63 Z" fill="#01101b" opacity="1.00" stroke="#01101b" stroke-width="0.25"/>
<path d="M 325.46 47.55 C 331.76 45.77 337.77 43.15 343.61 40.21 C 342.60 42.84 339.68 43.35 337.38 44.36 C 333.74 45.84 330.06 47.21 326.28 48.29 C 318.54 50.56 311.01 53.64 303.06 55.16 C 302.10 55.47 301.17 55.17 300.30 54.76 C 308.82 52.83 317.16 50.24 325.46 47.55 Z" fill="#0e5276" opacity="1.00" stroke="#0e5276" stroke-width="0.25"/>
<path d="M 149.83 47.75 C 152.52 45.82 155.09 43.64 158.18 42.34 C 154.67 46.19 150.16 48.88 145.96 51.88 C 136.98 58.34 128.16 65.04 118.84 71.00 C 119.02 69.36 120.50 68.59 121.72 67.78 C 131.40 61.54 140.54 54.54 149.83 47.75 Z" fill="#0e5276" opacity="1.00" stroke="#0e5276" stroke-width="0.25"/>
<path d="M 323.92 55.15 C 330.25 52.38 336.82 50.21 343.18 47.49 C 343.00 47.93 342.65 48.80 342.47 49.23 C 328.72 54.19 315.14 60.14 300.54 62.12 C 301.51 61.31 302.57 60.53 303.87 60.42 C 310.66 59.12 317.42 57.53 323.92 55.15 Z" fill="#0e5276" opacity="1.00" stroke="#0e5276" stroke-width="0.25"/>
<path d="M 152.95 57.98 C 156.30 55.65 159.41 52.96 162.97 50.94 C 160.71 54.03 157.34 55.96 154.35 58.23 C 146.42 64.08 138.03 69.25 130.10 75.09 C 127.58 76.78 125.17 78.98 122.01 79.30 C 132.15 71.95 142.83 65.37 152.95 57.98 Z" fill="#0e5276" opacity="1.00" stroke="#0e5276" stroke-width="0.25"/>
<path d="M 201.00 60.02 C 203.51 56.41 206.82 53.01 211.05 51.52 C 216.46 49.92 221.62 53.02 225.96 55.90 C 228.81 57.93 232.36 58.78 235.06 61.03 C 237.37 62.95 237.55 67.18 235.02 68.97 C 231.36 70.50 227.54 68.84 224.28 67.14 C 224.06 71.43 228.90 72.20 231.11 74.86 C 234.52 82.53 228.21 91.71 220.13 92.35 C 214.38 92.73 207.72 93.88 202.69 90.34 C 202.41 86.87 201.33 83.56 200.14 80.32 C 197.80 81.10 195.47 83.03 192.90 82.01 C 187.10 80.49 184.19 73.13 186.96 67.91 C 188.29 65.13 191.72 63.82 194.64 64.53 C 196.14 66.08 196.74 68.55 199.16 69.07 C 200.05 66.11 199.84 62.88 201.00 60.02 Z" fill="#fad8c4" opacity="1.00" stroke="#fad8c4" stroke-width="0.25"/>
<path d="M 301.32 66.63 C 315.61 64.44 329.32 59.59 342.73 54.34 C 340.49 56.88 337.08 57.65 334.06 58.87 C 322.97 62.55 311.74 65.89 300.24 68.07 C 300.51 67.71 301.05 66.99 301.32 66.63 Z" fill="#0e5276" opacity="1.00" stroke="#0e5276" stroke-width="0.25"/>
<path d="M 392.81 57.73 C 412.10 58.73 431.33 56.17 450.56 55.09 C 453.45 69.56 452.75 84.38 453.45 99.04 C 453.91 108.54 452.88 118.03 453.25 127.52 C 445.88 126.72 438.47 127.38 431.08 127.11 C 418.53 126.97 406.07 124.92 393.52 125.18 C 392.71 127.57 391.93 130.04 390.32 132.03 C 389.96 123.64 392.01 115.38 392.63 107.04 C 393.88 94.71 393.00 82.32 392.46 69.98 C 392.32 65.90 391.76 61.74 392.81 57.73 Z" fill="#01101b" opacity="1.00" stroke="#01101b" stroke-width="0.25"/>
<path d="M 436.94 59.44 C 440.81 59.26 444.65 58.87 448.50 58.41 C 449.51 68.12 449.69 77.90 449.89 87.66 C 450.74 99.68 450.41 111.75 450.20 123.79 C 441.15 123.78 432.10 124.03 423.06 123.68 C 423.63 116.38 427.16 109.19 425.71 101.85 C 423.01 108.71 421.24 115.99 420.20 123.28 C 411.51 122.66 402.85 121.82 394.14 121.47 C 397.99 101.56 396.72 81.20 395.07 61.13 C 409.05 61.60 423.00 60.21 436.94 59.44 Z" fill="#ffffff" opacity="1.00" stroke="#ffffff" stroke-width="0.25"/>
<path d="M 307.01 71.14 C 318.33 69.46 328.88 64.76 339.99 62.25 C 340.56 62.27 341.70 62.32 342.27 62.35 C 328.39 66.42 314.66 71.13 300.37 73.63 C 301.73 71.38 304.80 71.84 307.01 71.14 Z" fill="#0e5276" opacity="1.00" stroke="#0e5276" stroke-width="0.25"/>
<path d="M 315.39 75.55 C 324.14 73.11 332.66 69.93 341.20 66.84 C 340.08 68.86 337.69 69.07 335.75 69.79 C 329.86 71.75 324.08 74.03 318.18 75.95 C 313.25 77.54 308.04 77.87 303.00 79.02 C 302.10 79.35 301.20 79.17 300.47 78.53 C 305.37 77.19 310.50 76.99 315.39 75.55 Z" fill="#0e5276" opacity="1.00" stroke="#0e5276" stroke-width="0.25"/>
<path d="M 402.15 70.45 C 416.04 69.60 429.99 69.93 443.91 69.39 C 443.93 69.70 443.99 70.33 444.02 70.64 C 431.99 70.88 419.96 70.59 407.94 71.12 C 405.99 71.15 403.98 71.25 402.15 70.45 Z" fill="#0e5276" opacity="1.00" stroke="#0e5276" stroke-width="0.25"/>
<path d="M 130.19 82.95 C 133.85 81.22 137.00 78.65 140.19 76.19 C 140.55 76.88 141.26 78.27 141.62 78.97 C 139.76 81.13 136.84 81.95 134.60 83.65 C 132.39 84.94 130.51 87.31 127.78 87.30 C 126.27 85.35 128.55 83.66 130.19 82.95 Z" fill="#01101b" opacity="1.00" stroke="#01101b" stroke-width="0.25"/>
<path d="M 403.28 77.69 C 415.87 77.87 428.46 77.35 441.05 77.10 C 442.51 77.02 443.96 77.30 445.33 77.83 C 431.31 78.72 417.22 78.79 403.17 78.79 C 403.20 78.51 403.25 77.96 403.28 77.69 Z" fill="#0e5276" opacity="1.00" stroke="#0e5276" stroke-width="0.25"/>
<path d="M 302.48 83.55 C 305.97 82.89 309.53 81.73 313.10 82.51 C 309.72 83.81 306.02 83.51 302.55 84.43 C 302.54 84.21 302.50 83.77 302.48 83.55 Z" fill="#01101b" opacity="1.00" stroke="#01101b" stroke-width="0.25"/>
<path d="M 402.41 85.58 C 405.56 84.96 408.78 84.90 411.99 84.89 C 422.65 84.82 433.31 84.44 443.97 84.35 C 443.97 84.63 443.98 85.19 443.99 85.46 C 433.92 85.66 423.85 85.74 413.78 85.86 C 410.00 85.81 406.09 86.77 402.41 85.58 Z" fill="#0e5276" opacity="1.00" stroke="#0e5276" stroke-width="0.25"/>
<path d="M 402.93 91.49 C 412.60 90.67 422.32 90.88 432.02 90.65 C 436.42 90.56 440.84 90.12 445.25 90.53 C 444.45 90.78 443.65 90.97 442.84 91.11 C 431.24 91.94 419.58 91.44 407.98 92.18 C 406.26 92.29 404.54 92.10 402.93 91.49 Z" fill="#0e5276" opacity="1.00" stroke="#0e5276" stroke-width="0.25"/>
<path d="M 203.29 94.91 C 210.23 96.61 217.51 96.52 224.49 95.09 C 225.70 100.57 228.40 105.67 232.42 109.60 C 235.90 112.80 237.73 117.95 236.49 122.58 C 234.34 127.81 228.24 129.89 222.98 129.85 C 215.89 130.28 208.00 126.70 205.23 119.86 C 202.41 111.85 203.86 103.21 203.29 94.91 Z" fill="#fad8c4" opacity="1.00" stroke="#fad8c4" stroke-width="0.25"/>
<path d="M 418.01 98.28 C 426.94 98.29 435.85 97.48 444.78 97.27 C 444.49 97.53 443.92 98.05 443.63 98.30 C 433.46 99.21 423.24 99.39 413.03 99.55 C 409.80 99.44 406.37 99.93 403.37 98.48 C 408.23 97.91 413.13 98.45 418.01 98.28 Z" fill="#0e5276" opacity="1.00" stroke="#0e5276" stroke-width="0.25"/>
<path d="M 28.48 111.53 C 30.57 107.13 34.37 103.94 37.84 100.66 C 56.05 103.62 74.46 106.10 92.95 105.87 C 95.72 105.87 98.49 105.55 101.22 105.08 C 99.85 107.94 98.76 110.93 98.15 114.04 C 95.56 126.91 94.11 139.97 92.98 153.04 C 92.07 161.51 91.06 170.02 91.39 178.56 C 88.54 179.01 86.90 176.23 84.30 175.70 C 70.99 171.41 56.96 170.34 43.18 168.46 C 34.18 167.56 25.10 165.83 16.05 166.89 C 19.79 161.97 19.78 155.63 20.85 149.83 C 22.02 143.74 22.80 137.58 23.75 131.46 C 24.71 124.71 25.29 117.69 28.48 111.53 Z" fill="#01101b" opacity="1.00" stroke="#01101b" stroke-width="0.25"/>
<path d="M 438.77 107.84 C 439.06 106.03 439.05 103.93 440.69 102.75 C 440.45 109.20 441.13 116.32 437.89 122.15 C 437.13 117.36 438.20 112.58 438.77 107.84 Z" fill="#01101b" opacity="1.00" stroke="#01101b" stroke-width="0.25"/>
<path d="M 28.86 120.56 C 29.87 114.32 32.80 108.34 37.71 104.26 C 57.17 106.91 76.81 110.30 96.50 108.68 C 91.94 123.36 91.44 138.87 89.70 154.04 C 89.12 161.10 87.82 168.16 88.46 175.26 C 87.19 174.15 85.86 173.05 84.21 172.56 C 75.72 169.65 66.85 167.96 57.94 166.95 C 45.85 165.65 33.84 163.33 21.65 163.18 C 24.28 149.01 26.50 134.77 28.86 120.56 Z" fill="#ffffff" opacity="1.00" stroke="#ffffff" stroke-width="0.25"/>
<path d="M 237.35 109.95 C 245.58 111.28 253.77 112.89 261.91 114.68 C 264.18 115.22 265.05 117.75 266.47 119.36 C 274.10 130.34 283.75 139.71 291.80 150.37 C 301.99 154.09 312.66 156.29 322.98 159.61 C 318.67 163.31 314.96 167.73 310.14 170.82 C 295.59 165.10 280.37 160.87 266.42 153.66 C 264.02 145.77 262.67 137.49 259.04 129.99 C 256.67 125.11 254.89 119.42 250.42 116.02 C 249.70 118.45 251.03 120.78 251.92 122.98 C 253.83 127.20 255.75 131.43 257.47 135.74 C 253.48 136.15 249.50 136.77 245.52 137.29 C 243.81 127.95 242.12 118.29 237.35 109.95 Z" fill="#ffffff" opacity="1.00" stroke="#ffffff" stroke-width="0.25"/>
<path d="M 195.28 122.06 C 196.13 118.25 197.25 114.44 199.42 111.15 C 200.07 115.34 200.89 119.51 202.49 123.45 C 202.47 123.92 202.42 124.85 202.39 125.31 L 202.37 125.83 C 199.90 124.77 197.54 123.49 195.28 122.06 Z" fill="#ffffff" opacity="1.00" stroke="#ffffff" stroke-width="0.25"/>
<path d="M 341.60 123.44 C 353.00 119.93 364.91 118.03 375.88 113.22 C 379.91 132.79 384.09 152.33 387.57 172.00 C 385.30 172.14 383.01 172.27 380.80 172.84 C 370.04 175.51 359.60 179.26 348.94 182.24 C 343.74 183.65 338.53 185.59 333.06 185.36 C 323.49 184.65 314.02 182.98 304.47 182.10 C 304.20 178.53 304.17 174.94 304.30 171.36 C 307.78 171.87 310.26 174.79 313.80 175.14 C 322.20 177.06 330.49 182.35 339.34 180.22 C 343.81 178.31 349.98 174.97 349.33 169.30 C 352.02 168.57 354.65 167.64 357.15 166.41 C 363.96 162.93 371.64 161.72 378.60 158.63 C 376.48 158.16 374.47 159.15 372.48 159.71 C 368.61 160.87 364.79 162.19 360.91 163.30 C 361.69 161.16 362.20 158.79 363.64 156.97 C 367.70 154.73 372.25 153.49 376.70 152.24 C 376.31 152.11 375.52 151.83 375.13 151.70 C 371.32 152.91 367.53 154.22 363.63 155.12 C 363.87 152.97 364.14 150.83 364.43 148.69 C 367.10 147.63 369.92 146.95 372.56 145.80 C 372.64 145.43 372.81 144.68 372.89 144.30 C 369.97 144.80 367.11 145.59 364.27 146.39 C 363.71 145.25 363.04 144.20 362.24 143.23 C 361.86 144.86 361.54 146.52 361.20 148.17 C 353.91 149.19 346.29 149.59 339.48 152.60 C 339.43 155.13 339.61 157.66 339.92 160.18 C 332.25 157.90 324.36 156.33 316.82 153.66 C 315.23 146.83 312.40 140.40 308.89 134.35 C 319.83 130.84 330.51 126.49 341.60 123.44 Z" fill="#ffffff" opacity="1.00" stroke="#ffffff" stroke-width="0.25"/>
<path d="M 62.59 117.52 C 71.46 117.78 80.31 118.80 89.13 119.77 C 88.37 120.84 87.10 120.84 85.93 120.61 C 78.95 119.76 71.94 119.15 64.93 118.63 C 63.94 118.66 63.16 118.30 62.59 117.52 Z" fill="#0e5276" opacity="1.00" stroke="#0e5276" stroke-width="0.25"/>
<path d="M 62.94 124.77 C 71.34 124.96 79.68 126.35 87.96 127.64 C 86.15 128.72 84.00 128.15 82.04 127.94 C 77.40 127.24 72.76 126.50 68.09 126.02 C 66.35 125.75 64.41 125.90 62.94 124.77 Z" fill="#0e5276" opacity="1.00" stroke="#0e5276" stroke-width="0.25"/>
<path d="M 360.01 126.24 C 362.97 125.38 365.81 123.84 368.98 123.93 C 366.10 125.77 362.69 126.32 359.50 127.35 C 349.39 130.53 339.31 133.80 329.23 137.07 C 327.76 137.55 326.22 137.77 324.68 137.88 C 327.46 136.38 330.54 135.61 333.54 134.68 C 342.37 131.88 351.16 128.97 360.01 126.24 Z" fill="#0e5276" opacity="1.00" stroke="#0e5276" stroke-width="0.25"/>
<path d="M 202.37 125.83 L 202.39 125.31 C 207.69 127.26 211.24 132.50 217.04 133.45 C 225.20 135.10 236.27 133.29 239.61 124.54 C 241.01 130.21 241.49 136.12 243.28 141.67 C 248.27 141.22 253.09 139.45 258.16 139.51 C 264.56 162.94 268.51 186.96 272.47 210.90 C 273.33 219.54 274.93 228.33 274.96 236.93 C 256.12 245.52 235.13 248.32 214.57 248.37 C 209.54 227.23 204.35 206.13 199.72 184.90 C 206.61 173.20 213.69 161.57 221.47 150.42 C 222.37 148.71 224.95 147.57 224.70 145.47 C 219.72 141.05 214.18 137.27 209.41 132.60 C 207.12 130.30 204.04 128.63 202.37 125.83 Z" fill="#e35502" opacity="1.00" stroke="#e35502" stroke-width="0.25"/>
<path d="M 184.88 141.75 C 187.80 136.14 190.43 130.36 193.85 125.03 C 202.55 131.94 210.90 139.30 219.89 145.84 C 212.97 155.94 205.69 165.88 200.49 177.02 C 200.88 168.29 201.91 159.57 202.00 150.83 C 201.83 150.47 201.50 149.75 201.33 149.39 C 199.49 150.48 199.40 152.84 198.94 154.70 C 197.43 164.42 196.33 174.20 195.18 183.96 C 192.14 197.98 187.53 211.65 182.00 224.87 C 177.66 219.45 172.57 214.67 168.41 209.11 C 171.75 191.35 176.26 173.83 179.62 156.07 C 180.55 151.03 182.49 146.26 184.88 141.75 Z" fill="#ffffff" opacity="1.00" stroke="#ffffff" stroke-width="0.25"/>
<path d="M 325.76 142.79 C 340.39 139.02 354.52 133.53 369.13 129.64 L 369.44 130.66 C 356.58 133.82 344.18 138.57 331.47 142.27 C 329.62 142.83 327.67 142.88 325.76 142.79 Z" fill="#0e5276" opacity="1.00" stroke="#0e5276" stroke-width="0.25"/>
<path d="M 35.22 134.46 C 35.40 133.49 35.59 132.52 35.78 131.55 C 44.06 132.44 52.31 133.60 60.56 134.70 C 60.36 135.46 59.94 136.98 59.74 137.73 C 51.53 137.04 43.41 135.42 35.22 134.46 Z" fill="#01101b" opacity="1.00" stroke="#01101b" stroke-width="0.25"/>
<path d="M 423.24 136.12 C 447.28 140.15 469.40 153.22 494.24 152.83 C 491.25 175.08 482.97 196.12 474.94 216.93 C 473.52 220.79 470.62 225.35 474.03 229.02 C 458.65 222.95 443.15 216.99 427.08 212.98 C 418.46 210.26 409.73 207.50 400.64 207.04 C 401.92 200.61 404.37 194.48 405.91 188.12 C 409.43 175.87 410.55 163.01 414.97 151.01 C 416.98 145.66 420.10 140.85 423.24 136.12 Z" fill="#01101b" opacity="1.00" stroke="#01101b" stroke-width="0.25"/>
<path d="M 70.42 139.50 C 70.82 138.48 71.23 137.45 71.65 136.44 C 74.88 136.89 78.14 137.16 81.34 137.82 C 82.93 137.92 83.52 140.29 82.37 141.23 C 78.34 141.17 74.42 139.90 70.42 139.50 Z" fill="#01101b" opacity="1.00" stroke="#01101b" stroke-width="0.25"/>
<path d="M 331.78 148.37 C 345.22 145.90 358.18 141.46 371.15 137.25 C 370.24 138.43 368.83 138.96 367.49 139.46 C 357.40 142.84 347.16 145.73 336.86 148.38 C 335.19 148.92 333.46 148.63 331.78 148.37 Z" fill="#01101b" opacity="1.00" stroke="#01101b" stroke-width="0.25"/>
<path d="M 415.15 161.97 C 416.91 153.83 419.45 145.51 424.92 139.05 C 433.78 142.22 443.02 144.15 451.88 147.34 C 464.43 151.74 477.38 155.46 490.76 156.00 C 486.48 179.59 476.73 201.63 468.90 224.15 C 458.36 219.15 447.22 215.58 436.13 212.04 C 425.74 209.12 415.45 205.45 404.67 204.25 C 409.50 190.53 412.60 176.27 415.15 161.97 Z" fill="#ffffff" opacity="1.00" stroke="#ffffff" stroke-width="0.25"/>
<path d="M 33.47 142.48 C 41.20 142.47 48.79 144.44 56.50 145.01 C 56.15 146.11 55.66 147.14 55.05 148.11 C 53.44 148.65 51.76 148.03 50.16 147.79 C 44.59 146.55 38.83 146.38 33.27 145.09 C 33.32 144.44 33.42 143.13 33.47 142.48 Z" fill="#01101b" opacity="1.00" stroke="#01101b" stroke-width="0.25"/>
<path d="M 66.30 149.57 C 66.82 148.15 66.57 145.46 68.84 146.13 C 74.57 146.85 81.50 149.01 83.71 154.96 C 85.04 158.00 83.49 161.26 81.27 163.41 C 75.71 162.02 70.16 160.46 64.43 159.99 C 64.40 159.12 64.33 157.39 64.29 156.53 C 69.90 157.14 75.36 158.62 80.85 159.83 C 80.75 157.74 80.91 155.35 79.20 153.82 C 76.00 150.11 70.73 150.23 66.30 149.57 Z" fill="#01101b" opacity="1.00" stroke="#01101b" stroke-width="0.25"/>
<path d="M 343.13 155.20 C 348.13 152.62 354.09 152.59 359.56 151.45 C 358.88 155.92 358.57 161.83 353.74 163.91 C 351.80 164.58 349.14 166.63 347.41 164.64 C 345.08 162.08 343.29 158.68 343.13 155.20 Z" fill="#fad8c4" opacity="1.00" stroke="#fad8c4" stroke-width="0.25"/>
<path d="M 31.66 155.60 C 32.10 154.60 32.53 153.60 32.97 152.61 C 40.24 153.69 47.62 154.32 54.76 156.20 C 54.60 156.84 54.30 158.12 54.15 158.76 C 46.63 157.93 39.19 156.41 31.66 155.60 Z" fill="#01101b" opacity="1.00" stroke="#01101b" stroke-width="0.25"/>
<path d="M 446.05 155.68 C 454.20 156.32 462.01 159.17 469.93 161.07 C 473.40 162.11 477.36 162.33 480.10 164.96 C 470.46 162.75 461.14 159.30 451.44 157.33 C 449.60 156.92 447.65 156.73 446.05 155.68 Z" fill="#0e5276" opacity="1.00" stroke="#0e5276" stroke-width="0.25"/>
<path d="M 326.32 161.18 C 328.27 159.96 330.83 161.67 332.96 161.94 C 337.12 163.54 343.03 163.38 345.04 168.15 C 346.90 171.20 343.78 173.86 341.40 175.32 C 337.13 178.17 331.72 177.22 327.08 175.93 C 323.42 174.81 319.71 173.76 316.20 172.22 C 316.19 170.90 317.48 170.13 318.22 169.20 C 320.97 166.58 323.39 163.61 326.32 161.18 Z" fill="#fad8c4" opacity="1.00" stroke="#fad8c4" stroke-width="0.25"/>
<path d="M 444.12 162.55 C 455.83 164.77 467.28 168.18 478.91 170.78 C 477.45 171.99 475.53 170.98 473.92 170.76 C 466.26 168.83 458.68 166.51 450.87 165.19 C 448.58 164.53 445.60 164.76 444.12 162.55 Z" fill="#0e5276" opacity="1.00" stroke="#0e5276" stroke-width="0.25"/>
<path d="M 360.75 169.84 C 366.83 167.80 372.87 165.54 379.17 164.28 C 377.22 165.99 374.54 166.25 372.18 167.11 C 365.16 169.27 358.29 172.17 350.98 173.27 C 354.08 171.70 357.47 170.92 360.75 169.84 Z" fill="#0e5276" opacity="1.00" stroke="#0e5276" stroke-width="0.25"/>
<path d="M 423.91 172.97 C 424.15 169.99 426.77 170.32 428.89 171.30 C 435.66 173.53 442.59 175.16 449.53 176.78 C 449.22 177.57 448.60 179.16 448.30 179.95 C 440.04 178.15 431.85 175.85 423.91 172.97 Z" fill="#01101b" opacity="1.00" stroke="#01101b" stroke-width="0.25"/>
<path d="M 455.74 172.14 C 463.11 174.27 470.58 176.12 477.86 178.56 C 474.48 179.23 471.29 177.58 468.12 176.73 C 464.33 175.37 460.31 174.67 456.58 173.21 C 456.37 172.94 455.95 172.41 455.74 172.14 Z" fill="#0e5276" opacity="1.00" stroke="#0e5276" stroke-width="0.25"/>
<path d="M 454.95 179.47 C 461.71 180.94 468.07 183.79 474.74 185.57 C 474.69 185.89 474.60 186.51 474.55 186.83 C 469.37 185.20 464.42 182.88 459.10 181.69 C 457.61 181.17 455.58 181.20 454.95 179.47 Z" fill="#0e5276" opacity="1.00" stroke="#0e5276" stroke-width="0.25"/>
<path d="M 420.11 183.29 C 420.61 182.33 421.11 181.38 421.64 180.44 C 429.83 183.16 438.46 184.48 446.41 187.88 C 446.14 188.56 445.59 189.91 445.32 190.59 C 436.87 188.29 428.62 185.33 420.11 183.29 Z" fill="#01101b" opacity="1.00" stroke="#01101b" stroke-width="0.25"/>
<path d="M 318.66 187.01 C 324.37 187.52 330.04 188.48 335.78 188.63 C 333.05 194.49 331.27 200.72 329.26 206.84 C 326.18 205.15 322.84 203.97 319.37 203.45 C 319.27 197.96 318.95 192.49 318.66 187.01 Z" fill="#ffffff" opacity="1.00" stroke="#ffffff" stroke-width="0.25"/>
<path d="M 455.78 189.37 C 459.29 189.65 462.49 191.23 465.79 192.35 C 467.70 193.04 469.76 193.53 471.31 194.94 C 467.94 194.78 464.98 193.02 461.84 191.98 C 459.80 191.17 457.49 190.83 455.78 189.37 Z" fill="#01101b" opacity="1.00" stroke="#01101b" stroke-width="0.25"/>
<path d="M 184.81 227.79 C 189.61 215.93 193.48 203.72 197.11 191.46 C 198.06 199.78 201.24 207.72 202.11 215.99 C 197.76 233.79 194.75 251.88 190.98 269.80 C 185.65 269.33 180.34 268.67 175.06 267.85 C 177.28 255.43 179.53 242.99 182.08 230.63 C 183.18 229.88 184.45 229.19 184.81 227.79 Z" fill="#ffffff" opacity="1.00" stroke="#ffffff" stroke-width="0.25"/>
<path d="M 414.98 198.09 C 415.59 197.06 416.20 196.04 416.83 195.02 C 424.24 197.86 432.06 199.35 439.66 201.56 C 439.48 202.60 439.30 203.64 439.13 204.69 C 431.07 202.53 423.11 199.96 414.98 198.09 Z" fill="#01101b" opacity="1.00" stroke="#01101b" stroke-width="0.25"/>
<path d="M 113.02 198.88 C 116.12 198.05 118.99 196.61 121.91 195.31 C 121.50 203.56 121.81 211.82 122.26 220.06 C 122.80 230.13 125.07 239.98 127.15 249.82 C 128.50 255.58 129.49 261.45 131.37 267.07 C 122.81 267.61 114.35 269.23 106.25 272.07 C 105.32 284.71 103.71 297.30 103.26 309.97 C 103.09 311.16 103.41 313.26 101.72 313.48 C 92.37 315.94 83.64 320.20 74.70 323.80 C 70.88 325.28 67.32 327.28 63.76 329.27 C 64.98 321.25 64.55 313.09 65.51 305.05 C 66.39 296.72 66.56 288.32 67.93 280.06 C 63.38 280.74 58.82 281.46 54.22 281.77 C 55.25 279.60 57.58 278.90 59.55 277.93 C 59.68 269.21 57.99 260.62 56.92 252.00 C 55.64 239.49 52.82 227.13 48.43 215.34 C 54.03 215.69 58.03 210.61 63.34 209.48 C 79.69 205.03 96.72 203.59 113.02 198.88 Z" fill="#01101b" opacity="1.00" stroke="#01101b" stroke-width="0.25"/>
<path d="M 67.95 211.25 C 84.86 207.61 102.41 206.28 118.74 200.30 C 118.47 213.54 118.72 226.91 121.57 239.90 C 123.41 247.99 124.68 256.21 126.84 264.23 C 122.51 264.63 118.18 265.22 113.93 266.18 C 97.37 270.96 80.23 273.30 63.59 277.77 C 62.53 265.62 60.91 253.54 59.19 241.47 C 57.88 233.72 56.54 225.73 52.52 218.84 C 57.26 215.60 62.29 212.55 67.95 211.25 Z" fill="#ffffff" opacity="1.00" stroke="#ffffff" stroke-width="0.25"/>
<path d="M 447.67 205.44 C 452.45 207.29 457.75 208.18 462.00 211.14 C 461.78 211.55 461.33 212.38 461.11 212.79 C 458.20 212.59 455.42 211.59 453.03 209.95 C 451.20 209.80 449.21 210.22 447.52 209.38 C 445.85 208.35 447.25 206.74 447.67 205.44 Z" fill="#01101b" opacity="1.00" stroke="#01101b" stroke-width="0.25"/>
<path d="M 81.92 216.52 C 91.05 215.38 100.19 214.38 109.34 213.43 C 108.37 214.87 106.45 214.58 104.97 214.89 C 96.23 215.80 87.51 216.98 78.77 217.87 C 79.67 217.12 80.70 216.51 81.92 216.52 Z" fill="#0e5276" opacity="1.00" stroke="#0e5276" stroke-width="0.25"/>
<path d="M 94.97 222.35 C 99.77 222.00 104.44 220.74 109.20 220.13 C 108.56 221.90 106.50 221.65 105.01 222.00 C 99.76 222.69 94.52 223.74 89.20 223.63 C 90.87 222.38 93.01 222.56 94.97 222.35 Z" fill="#0e5276" opacity="1.00" stroke="#0e5276" stroke-width="0.25"/>
<path d="M 193.18 288.14 C 195.04 265.81 199.33 243.76 204.65 222.02 C 205.43 227.60 207.12 232.98 208.18 238.51 C 211.95 254.46 214.16 270.72 216.02 286.99 C 216.43 290.47 216.74 293.97 216.66 297.49 C 208.52 295.30 201.07 291.09 193.18 288.14 Z" fill="#ffffff" opacity="1.00" stroke="#ffffff" stroke-width="0.25"/>
<path d="M 97.66 231.60 C 102.18 230.95 106.71 230.39 111.20 229.56 C 111.45 230.60 111.70 231.64 111.94 232.68 C 107.33 233.38 102.73 234.27 98.08 234.54 C 97.98 233.81 97.77 232.34 97.66 231.60 Z" fill="#01101b" opacity="1.00" stroke="#01101b" stroke-width="0.25"/>
<path d="M 67.37 238.59 C 74.31 237.29 81.15 235.48 88.14 234.48 C 88.33 235.45 88.50 236.43 88.68 237.42 C 81.75 238.96 74.76 240.16 67.87 241.89 C 67.70 240.78 67.53 239.69 67.37 238.59 Z" fill="#01101b" opacity="1.00" stroke="#01101b" stroke-width="0.25"/>
<path d="M 402.38 263.41 C 402.23 253.71 402.18 244.00 402.43 234.29 C 410.60 235.62 418.78 237.15 427.09 237.33 C 442.58 237.82 458.22 239.51 472.92 244.64 C 472.03 257.83 473.96 270.94 474.69 284.07 C 475.18 291.73 476.15 299.35 476.96 306.98 C 455.31 303.50 433.24 302.25 412.01 296.45 C 412.77 291.39 414.07 286.44 415.39 281.51 C 427.52 283.27 439.73 284.42 451.93 285.49 C 457.25 285.75 462.52 287.08 467.87 286.55 C 463.31 285.21 458.46 285.70 453.81 284.82 C 440.98 284.01 428.27 281.90 415.43 281.26 C 415.86 278.77 416.52 276.33 417.41 273.97 C 433.67 276.47 450.10 277.71 466.44 279.50 C 464.39 278.01 461.70 278.46 459.35 277.96 C 445.36 276.62 431.40 274.97 417.45 273.39 C 417.99 270.94 418.66 268.53 419.54 266.18 C 413.78 265.56 408.03 264.69 402.38 263.41 Z" fill="#ffffff" opacity="1.00" stroke="#ffffff" stroke-width="0.25"/>
<path d="M 99.42 242.09 C 104.03 241.57 108.60 240.79 113.19 240.16 C 113.35 241.21 113.51 242.27 113.66 243.33 C 108.95 243.72 104.38 244.99 99.72 245.72 C 99.65 244.81 99.50 243.00 99.42 242.09 Z" fill="#01101b" opacity="1.00" stroke="#01101b" stroke-width="0.25"/>
<path d="M 410.39 241.34 C 416.63 240.82 422.81 242.29 429.05 242.46 C 440.93 243.54 452.94 244.26 464.64 246.63 C 461.92 246.83 459.20 246.59 456.51 246.22 C 445.07 244.64 433.53 243.96 422.03 242.87 C 418.14 242.48 414.13 242.63 410.39 241.34 Z" fill="#0e5276" opacity="1.00" stroke="#0e5276" stroke-width="0.25"/>
<path d="M 216.16 253.07 C 235.53 252.53 255.02 249.57 273.14 242.52 C 279.89 267.02 280.60 292.79 278.96 318.03 C 277.66 339.95 272.63 361.39 269.53 383.08 C 267.64 394.11 265.49 405.12 264.40 416.28 C 264.28 413.84 264.21 411.39 264.35 408.95 C 265.36 395.97 265.44 382.95 265.86 369.95 C 266.92 350.60 266.13 331.17 264.04 311.91 C 262.17 300.95 259.39 290.15 257.78 279.13 C 262.41 275.19 265.93 269.80 267.40 263.89 C 268.03 262.82 266.87 259.86 265.77 261.80 C 262.98 267.23 260.69 273.94 254.39 276.21 C 253.99 280.49 254.59 284.77 254.55 289.06 C 254.52 308.44 252.87 327.78 250.95 347.05 C 249.86 356.39 249.03 365.81 246.58 374.91 C 242.80 388.18 237.31 400.89 233.34 414.10 C 228.35 429.16 223.01 444.12 218.73 459.41 C 214.99 458.18 211.24 457.00 207.37 456.26 C 211.96 430.05 218.95 404.30 223.21 378.02 C 227.31 336.29 223.07 294.26 216.16 253.07 Z" fill="#0e5276" opacity="1.00" stroke="#0e5276" stroke-width="0.25"/>
<path d="M 68.36 249.53 C 75.23 247.89 82.15 246.37 89.12 245.18 C 90.83 244.46 92.42 247.74 90.11 248.00 C 83.20 249.45 76.23 250.67 69.44 252.66 C 69.07 251.62 68.71 250.57 68.36 249.53 Z" fill="#01101b" opacity="1.00" stroke="#01101b" stroke-width="0.25"/>
<path d="M 411.66 246.76 C 429.08 248.39 446.57 249.38 463.93 251.56 C 464.24 251.79 464.85 252.26 465.15 252.49 C 449.17 250.94 433.18 249.45 417.16 248.29 C 415.26 248.05 413.11 248.20 411.66 246.76 Z" fill="#0e5276" opacity="1.00" stroke="#0e5276" stroke-width="0.25"/>
<path d="M 411.86 252.45 C 427.99 253.80 444.12 255.47 460.19 257.48 C 462.10 257.64 464.00 258.07 465.65 259.11 C 448.42 257.06 431.17 255.07 413.87 253.66 C 412.98 253.64 412.31 253.24 411.86 252.45 Z" fill="#0e5276" opacity="1.00" stroke="#0e5276" stroke-width="0.25"/>
<path d="M 411.98 258.51 C 428.04 259.99 444.02 262.24 460.06 263.90 C 461.84 264.22 463.92 263.97 465.31 265.37 C 449.14 264.04 433.07 261.49 416.89 260.12 C 415.19 259.82 413.10 260.11 411.98 258.51 Z" fill="#0e5276" opacity="1.00" stroke="#0e5276" stroke-width="0.25"/>
<path d="M 92.97 260.88 C 94.90 260.59 96.84 259.92 98.81 260.22 C 98.98 260.92 99.32 262.33 99.49 263.04 C 89.73 264.28 79.91 265.71 70.47 268.58 C 70.25 267.84 69.80 266.36 69.57 265.62 C 77.15 263.09 85.14 262.29 92.97 260.88 Z" fill="#01101b" opacity="1.00" stroke="#01101b" stroke-width="0.25"/>
<path d="M 371.03 260.41 C 386.03 263.27 401.03 266.21 416.14 268.47 C 413.64 274.21 412.49 280.40 410.81 286.40 C 407.61 298.31 405.32 310.43 401.98 322.30 C 398.81 322.09 395.64 321.73 392.56 320.95 C 391.72 331.06 393.63 341.20 394.72 351.25 C 385.95 351.92 377.15 351.66 368.36 351.79 C 366.97 338.56 365.03 325.35 365.24 312.01 C 364.98 294.63 367.97 277.45 371.03 260.41 Z" fill="#ffffff" opacity="1.00" stroke="#ffffff" stroke-width="0.25"/>
<path d="M 420.32 267.98 C 420.97 267.54 421.63 267.12 422.30 266.71 C 435.50 268.75 448.81 270.08 462.11 271.37 C 463.54 271.37 464.84 271.98 466.04 272.72 C 455.65 271.85 445.29 270.57 434.92 269.43 C 430.05 268.96 425.22 267.76 420.32 267.98 Z" fill="#0e5276" opacity="1.00" stroke="#0e5276" stroke-width="0.25"/>
<path d="M 373.92 268.36 C 378.33 268.28 382.47 270.08 386.80 270.62 C 389.51 271.31 392.74 271.01 394.84 273.17 C 390.17 272.77 385.74 271.13 381.13 270.39 C 378.66 269.94 376.03 269.85 373.92 268.36 Z" fill="#0e5276" opacity="1.00" stroke="#0e5276" stroke-width="0.25"/>
<path d="M 71.45 279.32 C 81.83 276.61 92.43 274.99 102.90 272.69 C 102.06 285.41 100.59 298.08 99.72 310.80 C 92.99 312.56 86.59 315.31 80.18 317.96 C 76.02 319.88 71.58 321.17 67.59 323.44 C 68.25 308.68 69.84 293.99 71.45 279.32 Z" fill="#ffffff" opacity="1.00" stroke="#ffffff" stroke-width="0.25"/>
<path d="M 171.45 287.72 C 172.52 282.37 172.90 276.89 174.28 271.61 C 179.89 272.42 185.52 273.15 191.17 273.73 C 189.99 279.06 189.44 284.51 188.20 289.84 C 182.63 289.06 177.04 288.35 171.45 287.72 Z" fill="#ffffff" opacity="1.00" stroke="#ffffff" stroke-width="0.25"/>
<path d="M 373.57 274.37 C 378.45 274.78 383.08 276.51 387.87 277.44 C 390.26 278.05 392.94 278.05 394.88 279.78 C 387.70 278.45 380.37 277.06 373.57 274.37 Z" fill="#0e5276" opacity="1.00" stroke="#0e5276" stroke-width="0.25"/>
<path d="M 372.95 279.35 C 378.38 280.74 383.68 282.60 389.11 284.00 C 392.04 284.89 395.31 285.14 397.73 287.23 C 391.06 285.75 384.58 283.54 377.98 281.80 C 376.21 281.22 374.07 281.04 372.95 279.35 Z" fill="#0e5276" opacity="1.00" stroke="#0e5276" stroke-width="0.25"/>
<path d="M 372.54 285.16 C 379.56 286.02 386.13 288.86 393.04 290.24 C 395.61 291.02 398.62 290.67 400.77 292.50 C 392.89 291.89 385.42 289.05 377.80 287.19 C 375.95 286.76 374.11 286.24 372.54 285.16 Z" fill="#0e5276" opacity="1.00" stroke="#0e5276" stroke-width="0.25"/>
<path d="M 76.18 311.69 C 76.77 303.93 77.54 295.90 80.67 288.71 C 80.80 296.45 77.63 303.89 78.10 311.69 C 77.62 311.69 76.66 311.69 76.18 311.69 Z" fill="#01101b" opacity="1.00" stroke="#01101b" stroke-width="0.25"/>
<path d="M 372.10 291.72 C 381.51 293.25 390.59 296.41 400.03 297.90 C 395.29 298.92 390.62 296.65 386.02 295.76 C 381.43 294.26 376.35 294.09 372.10 291.72 Z" fill="#0e5276" opacity="1.00" stroke="#0e5276" stroke-width="0.25"/>
<path d="M 420.29 291.27 C 423.34 291.31 426.29 292.07 429.23 292.78 C 440.06 295.03 451.09 296.12 462.07 297.38 C 464.10 297.58 466.19 297.74 468.06 298.64 C 463.26 298.99 458.54 297.78 453.79 297.43 C 442.55 295.93 430.94 295.49 420.29 291.27 Z" fill="#0e5276" opacity="1.00" stroke="#0e5276" stroke-width="0.25"/>
<path d="M 90.44 305.65 C 91.22 301.18 89.91 295.91 92.57 292.01 C 93.37 296.40 92.74 300.86 92.31 305.26 C 91.84 305.36 90.91 305.55 90.44 305.65 Z" fill="#01101b" opacity="1.00" stroke="#01101b" stroke-width="0.25"/>
<path d="M 371.96 299.26 C 381.11 300.83 389.96 303.87 399.24 304.75 C 396.97 306.05 394.34 305.15 391.96 304.77 C 385.88 303.47 379.84 302.03 373.80 300.57 C 373.00 300.42 372.39 299.98 371.96 299.26 Z" fill="#0e5276" opacity="1.00" stroke="#0e5276" stroke-width="0.25"/>
<path d="M 113.64 340.92 C 116.41 328.58 117.34 315.37 124.03 304.33 C 137.10 310.09 151.76 311.24 165.87 310.33 C 163.61 320.71 161.39 331.10 159.25 341.51 C 156.85 353.38 153.24 364.94 149.73 376.51 C 148.67 380.01 148.00 383.60 147.38 387.19 C 139.17 382.85 129.92 381.12 120.88 379.45 C 112.83 378.14 104.77 376.69 96.63 376.19 C 98.63 374.72 100.54 373.15 102.54 371.68 C 104.63 371.24 106.78 371.21 108.90 371.42 C 120.37 372.54 131.77 374.44 142.89 377.47 C 142.78 376.84 142.54 375.56 142.43 374.93 C 137.75 373.30 132.77 372.80 128.00 371.48 C 129.77 364.26 132.54 357.26 133.29 349.81 C 132.27 350.89 131.08 351.91 130.54 353.34 C 128.16 359.12 126.73 365.23 124.36 371.01 C 118.31 369.72 112.16 369.08 106.01 368.48 C 109.03 359.43 111.95 350.33 113.64 340.92 Z" fill="#ffffff" opacity="1.00" stroke="#ffffff" stroke-width="0.25"/>
<path d="M 371.73 306.47 C 378.84 307.66 385.70 310.17 392.91 310.83 C 394.48 310.96 396.07 311.18 397.53 311.84 C 391.22 311.78 385.02 310.42 378.86 309.18 C 376.42 308.51 373.65 308.28 371.73 306.47 Z" fill="#0e5276" opacity="1.00" stroke="#0e5276" stroke-width="0.25"/>
<path d="M 127.39 312.43 C 131.58 312.21 135.55 313.75 139.59 314.57 C 145.24 315.90 151.04 316.35 156.70 317.56 C 157.08 317.82 157.82 318.35 158.19 318.62 C 147.79 317.32 137.49 315.25 127.39 312.43 Z" fill="#0e5276" opacity="1.00" stroke="#0e5276" stroke-width="0.25"/>
<path d="M 372.04 312.29 C 379.07 314.22 386.05 316.38 393.26 317.55 C 388.76 318.50 384.46 316.47 380.16 315.51 C 377.40 314.61 374.23 314.37 372.04 312.29 Z" fill="#0e5276" opacity="1.00" stroke="#0e5276" stroke-width="0.25"/>
<path d="M 126.09 318.22 C 130.76 318.44 135.28 319.75 139.86 320.62 C 145.61 321.84 151.48 322.40 157.21 323.73 C 156.48 324.05 155.70 324.36 154.90 324.15 C 146.17 322.96 137.56 321.06 128.87 319.60 C 127.76 319.54 126.85 318.99 126.09 318.22 Z" fill="#0e5276" opacity="1.00" stroke="#0e5276" stroke-width="0.25"/>
<path d="M 371.96 318.12 C 376.57 319.31 381.27 320.13 385.97 320.92 C 381.29 321.33 375.52 321.60 371.96 318.12 Z" fill="#0e5276" opacity="1.00" stroke="#0e5276" stroke-width="0.25"/>
<path d="M 125.52 324.44 C 135.60 326.01 145.62 327.92 155.75 329.13 C 153.91 330.04 151.87 329.70 149.93 329.38 C 141.74 328.00 133.58 326.33 125.31 325.55 C 125.36 325.27 125.47 324.72 125.52 324.44 Z" fill="#0e5276" opacity="1.00" stroke="#0e5276" stroke-width="0.25"/>
<path d="M 371.87 326.13 C 375.25 326.49 378.61 326.99 381.93 327.70 C 378.56 328.41 374.84 327.93 371.87 326.13 Z" fill="#0e5276" opacity="1.00" stroke="#0e5276" stroke-width="0.25"/>
<path d="M 395.01 325.18 C 403.38 326.66 411.87 326.95 420.36 326.94 C 419.54 333.24 420.29 339.57 420.32 345.89 C 420.93 358.77 420.91 371.71 422.32 384.53 C 416.52 383.04 410.53 382.55 404.61 381.70 C 404.71 374.45 405.05 367.15 403.96 359.95 C 401.18 366.52 402.51 374.02 401.23 380.97 C 395.72 380.33 390.21 379.75 384.71 379.15 C 385.67 371.21 384.38 363.27 384.42 355.33 C 388.80 354.89 393.20 354.62 397.58 354.22 C 397.49 350.46 397.21 346.71 397.11 342.96 C 402.74 343.34 408.39 343.59 414.04 343.47 C 408.49 341.92 402.55 342.80 396.85 342.50 C 396.56 339.17 396.16 335.85 395.78 332.54 C 401.87 333.12 408.01 333.48 414.13 333.28 C 408.18 331.81 401.89 332.45 395.80 332.43 C 395.52 330.01 395.25 327.60 395.01 325.18 Z" fill="#ffffff" opacity="1.00" stroke="#ffffff" stroke-width="0.25"/>
<path d="M 123.31 331.50 C 124.17 331.04 125.09 330.58 126.09 330.84 C 134.46 331.90 142.74 333.56 151.10 334.61 C 152.30 334.74 153.50 334.99 154.47 335.78 C 144.00 335.14 133.76 332.47 123.31 331.50 Z" fill="#0e5276" opacity="1.00" stroke="#0e5276" stroke-width="0.25"/>
<path d="M 379.38 340.00 C 379.56 336.90 378.56 333.29 380.43 330.57 C 381.30 336.59 382.67 342.68 382.19 348.79 C 379.16 347.02 379.80 342.96 379.38 340.00 Z" fill="#01101b" opacity="1.00" stroke="#01101b" stroke-width="0.25"/>
<path d="M 122.14 336.38 C 131.55 337.04 140.84 338.74 150.08 340.57 C 151.21 340.76 152.25 341.27 153.27 341.78 C 148.76 341.70 144.41 340.34 139.96 339.72 C 134.30 338.75 128.56 338.22 122.88 337.45 C 122.69 337.18 122.32 336.65 122.14 336.38 Z" fill="#0e5276" opacity="1.00" stroke="#0e5276" stroke-width="0.25"/>
<path d="M 397.31 338.17 C 402.72 337.24 408.43 337.61 413.85 338.40 C 408.35 338.75 402.80 338.63 397.31 338.17 Z" fill="#0e5276" opacity="1.00" stroke="#0e5276" stroke-width="0.25"/>
<path d="M 119.87 343.41 C 130.66 344.43 141.25 347.10 151.97 348.70 C 150.76 349.52 149.27 349.28 147.91 349.10 C 139.85 347.93 131.93 345.98 123.88 344.74 C 122.47 344.55 121.13 344.07 119.87 343.41 Z" fill="#0e5276" opacity="1.00" stroke="#0e5276" stroke-width="0.25"/>
<path d="M 398.85 347.82 C 403.28 347.72 407.70 348.15 412.13 348.29 C 412.93 348.28 413.51 348.68 413.86 349.47 C 410.21 349.25 406.58 348.87 402.93 348.78 C 401.52 348.69 399.99 348.79 398.85 347.82 Z" fill="#0e5276" opacity="1.00" stroke="#0e5276" stroke-width="0.25"/>
<path d="M 398.16 354.33 C 400.72 353.45 403.43 354.23 406.05 354.29 C 409.23 354.62 412.71 354.38 415.49 356.24 C 409.72 355.59 403.85 355.60 398.16 354.33 Z" fill="#0e5276" opacity="1.00" stroke="#0e5276" stroke-width="0.25"/>
<path d="M 248.82 379.60 C 249.07 381.07 249.22 382.55 249.16 384.05 C 247.24 411.22 243.11 438.16 239.78 465.18 C 240.53 466.01 241.27 466.85 242.03 467.69 C 241.35 467.84 240.00 468.13 239.32 468.28 C 238.58 469.74 237.84 471.20 237.09 472.65 C 232.76 470.58 228.62 468.13 224.65 465.46 C 223.68 464.63 221.70 463.73 222.51 462.15 C 230.89 434.52 240.66 407.30 248.82 379.60 Z" fill="#b3b1a3" opacity="1.00" stroke="#b3b1a3" stroke-width="0.25"/>
<path d="M 198.44 469.07 C 199.50 466.47 200.54 463.85 201.60 461.25 C 207.01 462.63 212.78 463.45 217.54 466.60 C 222.17 469.66 227.10 472.28 231.55 475.61 C 237.00 479.60 243.29 482.49 247.96 487.47 C 240.86 488.43 234.01 485.74 227.31 483.78 C 216.86 480.64 207.92 474.23 198.44 469.07 Z" fill="#e35502" opacity="1.00" stroke="#e35502" stroke-width="0.25"/>
<path d="M 211.25 468.45 C 213.29 467.52 215.63 467.38 217.46 468.85 C 217.80 470.64 216.47 471.62 215.15 472.48 C 214.01 472.04 212.87 471.60 211.73 471.18 C 211.57 470.26 211.41 469.35 211.25 468.45 Z" fill="#01101b" opacity="1.00" stroke="#01101b" stroke-width="0.25"/>
<path d="M 249.30 480.68 C 246.07 479.01 240.12 477.41 241.67 472.60 C 247.96 472.80 254.54 472.82 260.32 475.63 C 268.49 479.55 277.19 482.20 285.97 484.33 C 287.84 484.76 289.63 485.50 291.32 486.42 C 279.15 486.96 266.67 485.88 255.22 481.47 C 255.29 480.72 255.44 479.22 255.52 478.47 C 253.92 477.92 252.28 477.51 250.62 477.24 C 250.17 478.38 249.73 479.53 249.30 480.68 Z" fill="#e35502" opacity="1.00" stroke="#e35502" stroke-width="0.25"/>
</svg>