<?xml version="1.0" encoding="utf-8"?>
<svg xmlns="http://www.w3.org/2000/svg" height="512pt" version="1.1" viewBox="0 0 512 512" width="512pt">
<path d="M 0.00 0.00 L 512.00 0.00 L 512.00 512.00 L 0.00 512.00 L 0.00 0.00 Z" fill="#f1bec0" opacity="1.00" stroke="#f1bec0" stroke-width="0.25" data-index="0" style="opacity: 1; visibility: hidden;"></path>
<path d="M 306.84 10.04 C 311.54 7.38 318.27 7.81 321.68 12.35 C 325.63 16.27 325.05 22.51 322.96 27.21 C 329.04 26.99 333.91 31.10 337.16 35.84 C 341.67 41.65 343.90 48.80 345.48 55.88 C 347.93 67.05 348.84 78.58 347.90 89.98 C 347.57 98.36 346.96 107.22 342.58 114.60 C 340.56 118.14 336.69 120.22 332.62 120.06 C 332.55 128.41 330.71 136.77 326.41 143.99 C 327.71 147.38 329.16 150.71 330.98 153.85 C 356.33 153.23 381.79 154.80 406.79 159.16 C 414.62 160.30 422.36 161.98 429.94 164.27 C 432.18 163.18 434.48 162.12 436.98 161.74 C 444.06 160.49 451.92 165.64 452.87 172.93 C 453.84 178.37 451.55 183.64 449.77 188.66 C 433.93 230.34 424.65 274.13 416.86 317.92 C 413.10 338.81 411.29 359.99 408.28 380.99 C 406.62 409.08 409.71 437.21 413.66 465.00 C 414.39 470.69 415.72 476.32 415.84 482.07 C 416.28 485.27 412.81 486.96 410.16 487.37 C 406.24 487.81 402.20 488.22 398.30 487.50 C 396.05 485.96 395.89 482.94 395.14 480.56 C 389.50 456.02 384.90 431.23 381.47 406.30 C 362.70 408.61 343.83 409.79 324.95 410.68 C 327.17 423.84 329.47 437.01 332.87 449.93 C 333.94 454.62 335.55 459.24 335.80 464.08 C 336.07 466.44 334.05 468.18 332.15 469.14 C 328.58 470.84 324.37 471.13 320.54 470.27 C 316.84 468.71 316.01 464.35 314.84 460.96 C 309.65 444.99 306.93 428.38 304.66 411.79 C 296.11 411.88 287.58 412.30 279.03 412.31 C 281.04 439.18 287.44 465.47 291.49 492.04 C 291.15 496.81 284.80 497.35 281.04 497.69 C 277.96 497.52 273.27 499.16 271.66 495.54 C 269.73 491.26 268.79 486.62 267.63 482.10 C 262.05 458.87 257.26 435.44 253.73 411.81 C 236.14 411.44 218.72 408.83 201.39 405.98 C 200.59 419.31 199.64 432.64 199.48 446.00 C 199.42 448.27 199.20 450.79 197.55 452.52 C 195.92 454.42 193.36 454.92 191.11 455.71 C 191.30 458.84 190.79 462.16 191.77 465.17 C 196.53 469.89 199.28 476.36 200.12 482.97 C 200.56 487.25 199.31 492.03 195.78 494.75 C 191.50 498.05 186.13 499.40 180.94 500.50 C 167.11 503.15 152.98 504.35 138.91 503.63 C 131.93 503.27 123.78 500.61 121.18 493.41 C 107.63 494.72 93.83 494.80 80.49 491.83 C 75.38 490.60 69.78 488.97 66.50 484.55 C 63.84 481.14 63.75 476.46 64.76 472.44 C 66.60 466.08 71.96 461.15 78.17 459.10 C 88.15 455.64 98.87 455.78 109.28 454.96 C 109.63 450.96 110.30 447.00 110.77 443.01 C 106.92 441.52 102.00 440.18 100.43 435.89 C 99.35 428.94 101.24 421.97 102.02 415.08 C 105.06 396.66 107.95 378.18 112.50 360.06 C 115.67 347.76 118.78 334.79 126.95 324.72 C 120.27 310.13 115.12 294.91 109.08 280.06 C 101.46 261.60 94.55 242.86 87.61 224.14 C 86.77 221.60 85.09 219.13 85.32 216.38 C 86.93 214.57 88.71 212.92 90.47 211.26 C 93.21 211.52 95.19 214.39 97.96 214.20 C 102.29 211.13 105.60 206.85 109.13 202.93 C 111.82 204.95 114.60 206.98 117.99 207.62 C 127.88 210.03 138.09 211.10 147.81 214.21 C 153.19 215.97 157.65 219.62 161.66 223.50 C 169.35 218.97 177.26 214.61 186.00 212.48 C 194.00 209.92 202.57 209.59 210.31 206.20 C 205.94 206.72 201.45 208.34 197.08 207.02 C 197.11 206.64 197.17 205.89 197.20 205.51 C 202.66 204.20 208.34 203.92 213.95 203.88 C 214.55 205.21 215.54 205.83 216.92 205.75 C 223.14 205.62 229.74 205.86 235.22 202.42 C 236.25 203.93 237.21 205.48 238.15 207.05 C 243.87 196.24 246.86 184.06 253.90 173.94 C 257.47 168.77 262.78 164.51 269.26 164.00 C 255.80 156.22 245.43 143.64 239.80 129.20 C 235.95 119.47 233.84 109.15 232.19 98.84 C 230.94 90.81 228.56 82.91 228.66 74.71 C 222.72 72.12 216.34 68.50 214.30 61.88 C 212.00 54.64 216.60 47.49 221.63 42.63 C 229.98 35.17 239.99 29.87 250.00 24.99 C 264.30 18.90 279.38 13.77 295.07 13.37 C 299.98 13.30 305.14 13.14 309.74 15.18 C 312.81 16.46 315.10 18.95 317.65 21.00 C 318.19 14.41 310.79 13.30 306.84 10.04 Z" fill="#000000" opacity="1.00" stroke="#000000" stroke-width="0.25" data-index="1" style="opacity: 1;"></path>
<path d="M 236.58 75.59 C 258.82 77.76 282.08 74.16 301.65 63.01 C 303.50 67.34 305.94 71.40 309.09 74.91 C 314.39 80.66 315.68 88.67 317.75 95.92 C 317.97 97.20 319.14 97.91 319.96 98.80 C 324.62 95.18 324.84 88.38 329.40 84.62 C 331.20 83.02 333.96 83.71 335.72 85.02 C 339.66 88.41 342.12 93.77 341.18 99.01 C 340.46 103.78 339.42 109.31 335.13 112.20 C 331.88 114.36 327.98 112.35 324.44 112.35 C 324.88 120.76 325.77 129.80 321.33 137.41 C 315.83 146.29 308.15 154.46 298.06 157.95 C 291.93 159.78 285.39 161.37 278.99 160.30 C 267.72 156.95 259.03 148.08 252.77 138.45 C 243.50 124.26 240.65 107.15 238.23 90.68 C 242.46 89.76 246.78 89.72 251.09 89.60 C 254.60 89.65 255.55 84.10 252.20 82.96 C 247.27 81.18 241.93 82.88 236.91 83.46 C 236.75 80.84 236.64 78.21 236.58 75.59 Z" fill="#fce7c8" opacity="1.00" stroke="#fce7c8" stroke-width="0.25" data-index="2" style="opacity: 1; visibility: visible; fill: rgb(255, 255, 255); stroke: rgb(255, 255, 255);"></path>
<path d="M 278.79 79.80 C 283.10 78.81 288.06 77.36 292.16 79.79 C 294.08 80.79 295.39 82.55 296.70 84.20 C 293.28 87.47 288.23 85.70 284.06 86.70 C 280.79 87.15 276.34 89.46 274.18 85.69 C 271.85 82.53 276.29 80.48 278.79 79.80 Z" fill="#000000" opacity="1.00" stroke="#000000" stroke-width="0.25" data-index="3"></path>
<path d="M 328.36 94.97 C 328.15 92.40 331.27 91.55 333.27 91.17 C 334.92 94.67 336.23 98.73 335.41 102.61 C 335.10 104.26 332.79 104.19 331.84 103.18 C 329.61 101.07 329.17 97.80 328.36 94.97 Z" fill="#000000" opacity="1.00" stroke="#000000" stroke-width="0.25" data-index="4"></path>
<path d="M 264.26 98.41 C 265.97 97.59 268.52 98.04 269.06 100.11 C 270.22 107.41 268.80 114.82 268.92 122.14 C 270.47 126.65 275.04 121.30 278.00 122.15 C 279.59 124.21 278.96 127.43 276.79 128.84 C 271.18 133.50 260.38 128.66 261.49 121.02 C 262.38 115.40 263.08 109.73 262.77 104.02 C 262.89 102.18 262.31 99.44 264.26 98.41 Z" fill="#000000" opacity="1.00" stroke="#000000" stroke-width="0.25" data-index="5"></path>
<path d="M 285.41 98.65 C 288.97 98.82 293.75 96.03 296.35 99.46 C 298.84 102.63 295.73 107.10 292.07 107.18 C 288.94 107.17 285.42 106.35 283.35 103.80 C 282.52 101.86 283.48 99.47 285.41 98.65 Z" fill="#000000" opacity="1.00" stroke="#000000" stroke-width="0.25" data-index="6"></path>
<path d="M 243.22 106.12 C 244.88 102.32 249.08 100.49 253.05 100.61 C 256.20 100.83 257.67 105.23 255.12 107.20 C 251.92 110.80 246.01 109.67 243.22 106.12 Z" fill="#000000" opacity="1.00" stroke="#000000" stroke-width="0.25" data-index="7"></path>
<path d="M 281.37 137.69 C 284.86 136.80 287.69 134.38 291.08 133.31 C 293.59 134.11 294.86 136.65 294.81 139.16 C 289.33 140.88 284.79 145.11 278.89 145.45 C 276.03 145.68 272.94 145.79 270.39 144.28 C 268.77 143.29 268.11 140.97 269.28 139.39 C 273.24 138.41 277.49 139.14 281.37 137.69 Z" fill="#000000" opacity="1.00" stroke="#000000" stroke-width="0.25" data-index="8"></path>
<path d="M 290.60 167.35 C 302.49 165.63 313.20 158.90 320.83 149.76 C 322.88 154.38 325.37 158.91 329.26 162.25 C 325.73 170.66 318.88 178.08 310.16 181.14 C 304.56 182.69 297.58 183.15 292.99 178.97 C 291.05 177.42 292.30 175.02 292.34 172.99 C 292.44 170.97 291.31 169.17 290.60 167.35 Z" fill="#fce7c8" opacity="1.00" stroke="#fce7c8" stroke-width="0.25" data-index="9" style="opacity: 1; visibility: visible; fill: rgb(255, 255, 255); stroke: rgb(255, 255, 255);"></path>
<path d="M 343.84 160.41 C 362.51 161.57 381.25 162.30 399.76 165.19 C 408.53 166.49 417.13 168.68 425.78 170.60 C 416.39 183.63 412.47 199.46 407.84 214.58 C 405.14 223.74 402.67 232.99 401.05 242.42 C 400.38 237.67 401.05 232.85 400.37 228.10 C 399.14 218.83 396.62 209.75 393.11 201.09 C 387.79 187.59 378.00 175.77 365.40 168.51 C 358.67 164.74 351.33 162.16 343.84 160.41 Z" fill="#f53302" opacity="1.00" stroke="#f53302" stroke-width="0.25" data-index="10" style="opacity: 1; visibility: visible; fill: rgb(255, 255, 255); stroke: rgb(255, 255, 255);"></path>
<path d="M 336.18 163.39 C 343.90 166.49 352.09 168.49 359.41 172.55 C 366.79 176.43 373.09 182.13 378.36 188.55 C 385.50 197.94 389.58 209.34 391.62 220.87 C 393.51 230.18 392.36 239.73 392.87 249.14 C 385.34 252.25 377.07 252.85 369.01 252.81 C 364.89 252.75 360.69 252.77 356.70 251.62 C 353.39 235.42 348.45 218.57 352.66 202.06 C 353.48 200.34 352.01 197.93 350.01 198.45 C 347.33 198.58 346.61 201.77 345.89 203.86 C 341.79 219.21 346.24 234.95 349.58 249.99 C 350.59 253.34 351.30 257.44 354.78 259.14 C 354.94 263.59 354.70 268.05 354.15 272.47 C 354.07 274.00 352.08 273.66 351.07 274.01 C 332.56 275.53 314.19 272.29 295.84 270.43 C 294.27 270.16 292.19 270.34 291.39 268.62 C 288.56 264.18 285.67 259.66 281.55 256.29 C 276.08 251.87 269.54 248.95 262.84 246.97 C 261.65 244.18 260.26 241.50 258.63 238.96 C 261.03 230.50 263.84 222.12 268.25 214.48 C 269.78 212.28 269.62 209.62 268.20 207.42 C 263.76 207.23 262.33 211.72 260.63 214.90 C 258.34 219.78 255.05 224.43 254.76 229.99 C 252.78 223.72 251.36 217.13 247.94 211.43 C 247.25 211.20 245.87 210.74 245.17 210.50 C 249.20 198.68 258.36 188.88 269.58 183.50 C 274.18 181.47 278.71 179.18 283.58 177.85 C 285.17 182.14 288.64 185.55 292.92 187.13 C 302.75 190.81 314.59 189.49 322.85 182.79 C 328.96 177.76 333.98 171.06 336.18 163.39 Z" fill="#fefefe" opacity="1.00" stroke="#fefefe" stroke-width="0.25" data-index="11" style="opacity: 1;"></path>
<path d="M 264.98 171.95 C 270.03 168.91 276.34 168.45 282.11 168.73 C 282.64 169.33 283.69 170.52 284.22 171.12 C 278.09 174.02 271.18 174.86 265.23 178.19 C 261.31 180.19 257.93 183.04 254.70 185.99 C 257.55 180.95 260.59 175.80 264.98 171.95 Z" fill="#f53302" opacity="1.00" stroke="#f53302" stroke-width="0.25" data-index="12" style="opacity: 1; visibility: visible; fill: rgb(255, 255, 255); stroke: rgb(255, 255, 255);"></path>
<path d="M 429.65 177.65 C 431.80 173.95 434.06 168.95 438.97 168.67 C 443.89 168.28 446.63 173.75 446.13 178.01 C 445.35 184.40 442.30 190.18 440.08 196.14 C 430.76 218.68 424.89 242.41 419.05 266.02 C 413.68 289.15 409.60 312.55 405.95 335.99 C 404.38 347.91 402.49 359.83 402.27 371.86 C 398.24 365.84 392.30 361.04 385.13 359.45 C 387.06 340.65 389.69 321.89 393.62 303.41 C 397.81 288.71 400.68 273.70 404.45 258.90 C 411.34 231.41 416.74 203.13 429.65 177.65 Z" fill="#f53302" opacity="1.00" stroke="#f53302" stroke-width="0.25" data-index="13" style="opacity: 1; visibility: visible; fill: rgb(255, 255, 255); stroke: rgb(255, 255, 255);"></path>
<path d="M 214.77 207.30 C 218.55 207.92 222.29 206.66 226.08 206.81 C 222.10 207.53 218.07 208.17 214.02 208.12 C 213.28 208.84 212.55 209.56 211.83 210.29 C 215.94 212.37 220.55 211.05 224.85 210.51 C 227.88 210.16 230.80 209.24 233.66 208.22 C 235.30 210.34 236.99 212.40 238.70 214.46 C 233.23 216.06 227.55 216.68 221.99 217.88 C 203.90 221.73 185.81 225.62 167.99 230.58 C 166.62 229.00 165.28 227.38 163.97 225.74 C 173.70 219.05 185.06 214.48 196.84 213.22 C 202.10 212.63 206.90 210.35 211.83 208.61 C 212.52 208.09 213.26 207.65 214.03 207.28 L 214.77 207.30 Z" fill="#fefefe" opacity="1.00" stroke="#fefefe" stroke-width="0.25" data-index="14"></path>
<path d="M 110.25 210.37 C 110.49 209.59 110.73 208.81 110.98 208.03 C 112.21 210.89 114.50 213.19 117.44 214.26 C 125.47 217.23 134.72 218.07 141.33 224.00 C 133.41 221.16 125.32 218.79 117.15 216.75 C 113.91 215.66 110.44 214.95 107.61 212.94 L 107.18 212.73 C 106.62 212.62 105.50 212.40 104.94 212.29 C 106.03 209.89 107.97 209.37 110.25 210.37 Z" fill="#fefefe" opacity="1.00" stroke="#fefefe" stroke-width="0.25" data-index="15"></path>
<path d="M 113.46 209.03 C 122.40 212.37 131.97 213.12 141.15 215.51 C 147.25 216.86 153.39 219.24 157.69 223.96 C 155.28 226.18 152.57 228.03 149.75 229.67 C 146.72 226.84 144.10 223.57 140.63 221.25 C 134.20 216.23 125.99 214.81 118.44 212.32 C 116.48 211.74 114.83 210.50 113.46 209.03 Z" fill="#fefefe" opacity="1.00" stroke="#fefefe" stroke-width="0.25" data-index="16" style="opacity: 1;"></path>
<path d="M 215.05 212.93 C 221.33 212.54 227.45 210.51 233.73 210.57 C 232.83 211.72 231.59 212.50 230.14 212.66 C 219.26 214.79 208.28 216.39 197.44 218.75 C 191.45 220.02 185.54 222.05 179.36 222.06 C 181.16 220.27 183.65 219.61 186.04 219.02 C 195.66 216.76 205.14 213.63 215.05 212.93 Z" fill="#000000" opacity="1.00" stroke="#000000" stroke-width="0.25" data-index="17"></path>
<path d="M 104.09 212.84 C 104.68 213.20 105.27 213.56 105.86 213.92 L 105.36 214.96 C 117.18 220.91 130.82 221.62 142.81 227.13 C 144.68 228.14 146.17 229.69 147.74 231.09 C 146.85 232.34 145.74 234.36 143.96 232.92 C 129.98 225.88 114.51 222.66 100.03 216.86 C 101.41 215.54 102.84 214.29 104.09 212.84 Z" fill="#fefefe" opacity="1.00" stroke="#fefefe" stroke-width="0.25" data-index="18"></path>
<path d="M 193.76 228.80 C 210.66 224.69 227.87 222.07 244.89 218.53 C 247.98 231.30 254.13 243.01 259.19 255.06 C 251.43 255.26 243.49 258.51 239.08 265.15 C 237.40 267.30 239.25 269.86 239.68 272.11 C 240.72 275.38 239.41 279.36 241.94 282.09 C 245.04 285.62 247.26 290.15 251.60 292.39 C 257.02 295.99 263.68 297.15 270.07 296.17 C 275.06 306.68 278.10 318.14 284.64 327.89 C 256.92 321.15 228.83 315.90 200.51 312.47 C 190.29 286.67 179.55 261.02 171.35 234.47 C 178.55 231.64 186.27 230.60 193.76 228.80 Z" fill="#2f9312" opacity="1.00" stroke="#2f9312" stroke-width="0.25" data-index="19" style="opacity: 1; visibility: visible; fill: rgb(255, 255, 255); stroke: rgb(255, 255, 255);"></path>
<path d="M 91.97 219.85 C 109.03 225.06 125.85 231.01 142.49 237.43 C 150.09 262.54 160.10 286.85 170.07 311.09 C 166.15 310.07 162.18 308.91 158.09 309.10 C 152.09 309.20 146.44 311.48 140.90 313.54 C 137.53 314.72 134.62 316.81 131.94 319.11 C 126.27 306.65 122.04 293.60 116.89 280.92 C 110.68 266.06 105.09 250.95 99.07 236.01 C 96.92 230.53 94.89 224.98 91.97 219.85 Z" fill="#2f9312" opacity="1.00" stroke="#2f9312" stroke-width="0.25" data-index="20" style="opacity: 1; visibility: visible; fill: rgb(255, 255, 255); stroke: rgb(255, 255, 255);"></path>
<path d="M 148.81 234.39 C 151.92 230.75 156.12 228.36 159.87 225.47 C 162.05 227.67 164.51 229.83 165.42 232.91 C 160.35 235.60 154.26 236.36 148.81 234.39 Z" fill="#fefefe" opacity="1.00" stroke="#fefefe" stroke-width="0.25" data-index="21"></path>
<path d="M 148.15 240.35 C 154.71 242.84 161.73 240.81 167.19 236.82 C 172.09 257.71 180.74 277.47 188.57 297.38 C 190.46 302.19 192.42 306.98 194.71 311.63 C 188.93 311.82 183.22 312.75 177.71 314.48 C 168.88 292.21 160.17 269.89 151.55 247.54 C 150.62 245.05 149.43 242.67 148.15 240.35 Z" fill="#2f9312" opacity="1.00" stroke="#2f9312" stroke-width="0.25" data-index="22" style="opacity: 1; visibility: visible; fill: rgb(255, 255, 255); stroke: rgb(255, 255, 255);"></path>
<path d="M 264.48 253.94 C 268.82 254.28 272.58 256.64 276.19 258.86 C 283.16 263.16 285.18 272.29 292.28 276.46 C 308.07 278.81 323.97 280.89 339.96 281.14 C 346.48 281.06 352.99 280.28 359.52 280.35 C 362.09 273.77 361.89 266.53 362.53 259.59 C 371.51 259.94 380.57 259.79 389.43 258.11 C 388.87 270.34 389.18 283.33 383.35 294.48 C 380.61 300.00 375.24 304.30 368.99 304.88 C 347.31 307.89 325.56 303.12 304.53 298.19 C 299.32 296.78 293.98 295.71 289.00 293.57 C 285.45 295.46 282.04 297.75 278.15 298.86 C 275.50 296.85 274.99 292.87 273.36 290.00 C 265.81 291.98 256.53 292.15 250.78 286.01 C 257.49 287.04 264.86 288.43 271.10 284.89 C 271.21 284.28 271.44 283.05 271.56 282.44 C 263.86 284.15 255.48 284.89 248.08 281.61 C 246.59 281.25 245.74 279.97 245.11 278.67 C 250.90 278.70 256.75 279.20 262.48 278.20 C 264.98 277.61 267.83 276.95 269.10 274.44 C 261.85 275.65 254.33 277.22 247.06 275.20 C 245.49 274.56 245.28 272.79 244.72 271.42 C 251.16 270.05 258.04 270.84 264.23 268.29 C 264.60 267.60 265.33 266.22 265.70 265.53 C 258.46 264.90 251.33 267.07 244.10 266.50 C 246.60 264.04 249.46 261.83 252.89 260.89 C 258.93 259.22 265.32 259.95 271.38 258.37 C 269.06 256.94 266.05 256.35 264.48 253.94 Z" fill="#fce7c8" opacity="1.00" stroke="#fce7c8" stroke-width="0.25" data-index="23" style="opacity: 1; visibility: visible; fill: rgb(255, 255, 255); stroke: rgb(255, 255, 255);"></path>
<path d="M 280.05 304.50 C 282.75 303.44 285.28 301.98 287.97 300.92 C 291.73 301.18 295.27 302.67 298.92 303.49 C 319.74 309.00 341.06 313.84 362.74 312.88 C 360.52 324.55 357.03 335.99 352.19 346.85 C 344.42 336.59 333.55 328.75 321.47 324.38 C 309.88 320.22 297.89 317.06 285.73 315.15 C 283.40 311.85 281.60 308.22 280.05 304.50 Z" fill="#fefefe" opacity="1.00" stroke="#fefefe" stroke-width="0.25" data-index="24"></path>
<path d="M 369.75 312.58 C 375.35 311.88 380.97 310.12 385.01 305.98 C 383.32 319.33 380.32 332.51 379.31 345.96 C 378.66 350.47 378.73 355.08 377.91 359.56 C 372.66 360.42 367.32 360.13 362.05 360.61 C 358.99 360.76 355.94 361.40 352.88 361.16 C 351.65 359.75 353.13 357.99 353.72 356.66 C 362.20 343.36 366.71 327.93 369.75 312.58 Z" fill="#f53302" opacity="1.00" stroke="#f53302" stroke-width="0.25" data-index="25" style="opacity: 1; visibility: visible; fill: rgb(255, 255, 255); stroke: rgb(255, 255, 255);"></path>
<path d="M 132.10 329.00 C 137.36 321.04 146.86 316.99 156.05 315.82 C 161.41 314.97 166.92 316.25 171.70 318.71 C 171.75 318.97 171.85 319.49 171.90 319.75 C 168.45 323.67 164.25 326.97 161.52 331.50 C 154.50 342.53 153.53 355.92 151.87 368.55 C 149.05 392.58 144.22 416.35 142.29 440.49 C 132.49 441.37 122.74 439.18 113.44 436.30 C 111.14 435.43 108.33 434.38 107.31 431.97 C 107.07 426.88 108.22 421.85 108.81 416.82 C 111.83 397.58 114.77 378.27 119.65 359.40 C 122.46 348.80 125.85 338.13 132.10 329.00 Z" fill="#024493" opacity="1.00" stroke="#024493" stroke-width="0.25" data-index="26" style="opacity: 1; visibility: visible; fill: rgb(255, 255, 255); stroke: rgb(255, 255, 255);"></path>
<path d="M 185.11 320.25 C 192.59 318.41 200.42 319.27 208.02 319.79 C 231.19 322.63 254.14 327.03 276.97 331.87 C 281.93 332.95 288.26 335.67 292.47 331.45 C 293.51 328.18 290.69 325.33 289.55 322.47 C 303.82 325.41 318.50 328.26 331.19 335.81 C 336.34 339.16 340.93 343.40 344.82 348.15 C 346.47 350.50 348.61 353.01 348.48 356.05 C 347.72 358.12 346.42 360.42 344.06 360.86 C 331.67 364.17 318.75 364.32 306.04 365.13 C 277.31 366.11 248.42 365.22 220.06 360.26 C 214.74 359.56 209.42 357.66 204.02 358.50 C 200.35 360.14 199.28 364.44 198.56 368.03 C 195.23 386.50 194.98 405.32 193.56 423.99 C 193.34 431.88 193.23 439.77 192.62 447.65 C 183.55 449.56 174.20 448.66 165.01 448.71 C 162.35 448.43 157.77 449.14 157.49 445.40 C 156.89 431.30 157.61 417.14 156.87 403.03 C 157.25 393.20 157.26 383.36 157.91 373.54 C 158.94 361.64 159.59 349.17 165.44 338.45 C 169.66 330.44 176.38 323.21 185.11 320.25 Z" fill="#024493" opacity="1.00" stroke="#024493" stroke-width="0.25" data-index="27" style="opacity: 1; visibility: visible; fill: rgb(255, 255, 255); stroke: rgb(255, 255, 255);"></path>
<path d="M 205.61 364.07 C 221.36 366.57 237.03 370.10 253.03 370.65 C 244.64 379.74 244.11 393.58 248.90 404.53 C 232.98 403.92 217.13 401.72 201.53 398.53 C 202.84 387.04 203.24 375.41 205.61 364.07 Z" fill="#f53302" opacity="1.00" stroke="#f53302" stroke-width="0.25" data-index="28" style="opacity: 1; visibility: visible; fill: rgb(255, 255, 255); stroke: rgb(255, 255, 255);"></path>
<path d="M 349.61 368.98 C 360.69 367.98 371.81 367.00 382.95 367.13 C 392.52 367.32 399.94 376.80 399.37 386.01 C 398.54 390.23 395.16 393.52 391.42 395.37 C 383.10 399.62 373.52 399.59 364.47 400.80 C 336.36 403.51 308.14 404.79 279.93 405.67 C 273.96 405.81 268.02 406.66 262.04 406.44 C 256.82 406.96 254.79 400.99 253.67 396.94 C 252.65 389.79 252.42 381.27 257.64 375.59 C 261.57 371.37 267.78 372.16 272.99 371.82 C 298.56 371.87 324.11 370.81 349.61 368.98 Z" fill="#f53302" opacity="1.00" stroke="#f53302" stroke-width="0.25" data-index="29" style="opacity: 1; visibility: visible; fill: rgb(255, 255, 255); stroke: rgb(255, 255, 255);"></path>
<path d="M 147.88 443.09 C 149.84 435.81 149.35 428.17 150.64 420.78 C 150.14 426.83 150.42 432.90 150.43 438.97 C 150.43 443.26 150.97 447.61 152.50 451.64 C 154.00 454.72 157.93 454.56 160.74 455.55 C 160.73 457.98 160.80 460.43 160.54 462.87 C 156.15 463.69 151.66 463.70 147.27 464.49 C 145.94 462.49 144.23 460.82 142.64 459.04 C 142.41 455.07 142.99 451.10 142.86 447.12 C 144.95 446.42 147.44 445.57 147.88 443.09 Z" fill="#f1bec0" opacity="1.00" stroke="#f1bec0" stroke-width="0.25" data-index="30" style="opacity: 1; visibility: visible; fill: rgb(255, 255, 255); stroke: rgb(255, 255, 255);"></path>
<path d="M 117.64 444.67 C 123.66 446.08 129.82 446.73 135.93 447.62 C 135.30 450.40 136.39 454.00 134.45 456.27 C 128.53 455.53 122.62 454.62 116.65 454.31 C 117.03 451.10 117.39 447.89 117.64 444.67 Z" fill="#f1bec0" opacity="1.00" stroke="#f1bec0" stroke-width="0.25" data-index="31" style="opacity: 1; visibility: visible; fill: rgb(255, 255, 255); stroke: rgb(255, 255, 255);"></path>
<path d="M 168.16 456.13 C 173.40 456.23 178.65 456.23 183.89 456.11 C 183.87 458.28 183.88 460.44 183.89 462.61 C 178.63 462.61 173.37 462.62 168.11 462.74 C 168.14 460.53 168.16 458.33 168.16 456.13 Z" fill="#f1bec0" opacity="1.00" stroke="#f1bec0" stroke-width="0.25" data-index="32" style="opacity: 1; visibility: visible; fill: rgb(255, 255, 255); stroke: rgb(255, 255, 255);"></path>
</svg>